<?xml version="1.0" encoding="UTF-8"?> <svg xmlns="http://www.w3.org/2000/svg" width="1964" height="332" viewBox="0 0 1964 332" fill="none"><path d="M156.993 276.667L277.047 0H120.054L0 276.667H156.993ZM304.752 332L240.108 184.443H397.101L461.746 332H304.752ZM518.673 259.131L590.136 69.7074H649.689L721.152 259.131H668.247L656.89 226.32H580.996L569.639 259.131H518.673ZM592.907 189.373H644.701L631.13 149.394C630.218 146.907 629.295 144.425 628.36 141.947C627.402 138.713 626.386 135.496 625.314 132.297L622.544 121.819C621.749 118.749 620.825 115.714 619.773 112.722H617.835C617.094 116.213 615.988 120.165 614.511 124.576C613.209 129.014 611.824 133.426 610.355 137.812C609.228 141.695 608.028 145.556 606.756 149.394L592.907 189.373ZM832.088 262.438C811.591 262.438 794.142 258.944 779.736 251.96C765.52 244.792 754.717 233.946 747.329 219.427C739.944 204.904 736.25 186.524 736.25 164.28C736.25 131.564 744.467 107.116 760.903 90.9395C777.523 74.5799 801.252 66.4 832.088 66.4C849.261 66.4 864.495 69.3406 877.791 75.2217C891.087 80.9226 901.429 89.561 908.813 101.14C916.385 112.539 920.17 126.783 920.17 143.879H871.697C871.697 135.791 870.036 128.898 866.712 123.197C863.672 117.415 858.936 112.702 853.138 109.69C847.414 106.562 840.399 105.001 832.088 105.001C821.746 105.001 813.254 107.116 806.606 111.343C799.958 115.571 795.066 121.635 791.925 129.54C788.785 137.445 787.216 147.003 787.216 158.215V170.623C787.216 181.835 788.785 191.485 791.925 199.573C795.066 207.478 799.867 213.542 806.328 217.77C812.976 221.814 821.471 223.838 831.812 223.838C840.674 223.838 848.154 222.367 854.248 219.427C860.526 216.483 865.235 212.164 868.373 206.466C871.697 200.585 873.36 193.6 873.36 185.512H920.17C920.17 202.605 916.476 216.853 909.092 228.248C901.89 239.644 891.64 248.194 878.344 253.891C865.235 259.589 849.814 262.438 832.088 262.438ZM1045.91 262.438C1027.63 262.438 1011.84 259.589 998.544 253.891C985.435 248.194 975.371 239.644 968.353 228.248C961.335 216.853 957.828 202.697 957.828 185.787V69.7074H1007.68V184.684C1007.68 196.816 1010.92 206.374 1017.38 213.359C1023.84 220.344 1033.35 223.838 1045.91 223.838C1058.47 223.838 1068.07 220.344 1074.72 213.359C1081.36 206.374 1084.69 196.816 1084.69 184.684V69.7074H1134.27V185.787C1134.27 202.697 1130.76 216.853 1123.74 228.248C1116.73 239.644 1106.66 248.194 1093.55 253.891C1080.44 259.589 1064.56 262.438 1045.91 262.438ZM1180.86 259.131V69.7074H1291.38C1305.41 69.7074 1317.14 72.3728 1326.55 77.7038C1335.97 82.8514 1342.99 90.0194 1347.6 99.2111C1352.41 108.219 1354.81 118.328 1354.81 129.54C1354.81 141.672 1351.94 152.518 1346.22 162.076C1340.68 171.451 1332.83 178.803 1322.68 184.134L1360.9 259.131H1305.5L1273.92 192.405H1230.44V259.131H1180.86ZM1230.44 155.733H1281.68C1288.51 155.733 1293.96 153.529 1298.02 149.115C1302.27 144.521 1304.39 138.457 1304.39 130.919C1304.39 125.954 1303.47 121.727 1301.63 118.236C1299.78 114.742 1297.19 112.077 1293.87 110.24C1290.54 108.219 1286.48 107.208 1281.68 107.208H1230.44V155.733ZM1375.58 259.131L1447.04 69.7074H1506.59L1578.06 259.131H1525.15L1513.8 226.32H1437.9L1426.55 259.131H1375.58ZM1449.81 189.373H1501.61L1488.04 149.394C1487.13 146.907 1486.2 144.425 1485.27 141.947C1484.31 138.712 1483.29 135.495 1482.22 132.297L1479.45 121.819C1478.66 118.749 1477.73 115.714 1476.68 112.722H1474.74C1474 116.213 1472.9 120.165 1471.42 124.576C1470.12 129.014 1468.73 133.426 1467.26 137.812C1466.13 141.695 1464.93 145.556 1463.66 149.394L1449.81 189.373ZM1685.28 262.438C1673.27 262.438 1662.01 261.335 1651.48 259.131C1640.96 257.107 1631.63 253.708 1623.51 248.927C1615.57 244.15 1609.29 237.899 1604.67 230.177C1600.06 222.276 1597.75 212.625 1597.75 201.227V198.748C1597.75 197.828 1597.84 197.091 1598.03 196.541H1645.95C1645.95 197.091 1645.85 197.828 1645.67 198.748V200.677C1645.67 206.558 1647.14 211.339 1650.1 215.013C1653.24 218.507 1657.58 221.08 1663.12 222.734C1668.66 224.204 1675.12 224.941 1682.51 224.941C1686.57 224.941 1690.36 224.758 1693.86 224.388C1697.37 224.021 1700.51 223.379 1703.28 222.459C1706.05 221.539 1708.45 220.435 1710.48 219.148C1712.7 217.678 1714.27 216.024 1715.19 214.187C1716.3 212.164 1716.86 209.868 1716.86 207.294C1716.86 203.067 1715.19 199.573 1711.87 196.816C1708.73 194.059 1704.39 191.76 1698.85 189.923C1693.5 188.086 1687.4 186.337 1680.57 184.684C1673.74 183.03 1666.63 181.285 1659.24 179.444C1651.98 177.648 1644.85 175.344 1637.91 172.551C1631.08 169.794 1624.9 166.304 1619.35 162.076C1614 157.849 1609.66 152.609 1606.34 146.358C1603.2 139.927 1601.63 132.206 1601.63 123.197C1601.63 113.272 1603.75 104.725 1608 97.5574C1612.24 90.2028 1618.06 84.23 1625.45 79.6357C1633.02 75.0383 1641.7 71.731 1651.48 69.7074C1661.27 67.5035 1671.71 66.4 1682.78 66.4C1693.68 66.4 1703.83 67.5035 1713.25 69.7074C1722.85 71.9144 1731.35 75.4083 1738.73 80.1859C1746.12 84.7802 1751.85 90.6644 1755.91 97.8325C1760.16 104.817 1762.37 113.272 1762.56 123.197V126.508H1714.91V124.576C1714.91 120.348 1713.71 116.674 1711.31 113.547C1709.1 110.24 1705.68 107.666 1701.06 105.829C1696.45 103.805 1690.73 102.797 1683.89 102.797C1677.06 102.797 1671.24 103.439 1666.44 104.725C1661.83 106.012 1658.23 107.849 1655.64 110.24C1653.24 112.63 1652.04 115.479 1652.04 118.786C1652.04 122.83 1653.61 126.141 1656.75 128.712C1660.07 131.285 1664.5 133.492 1670.04 135.33C1676.15 137.331 1682.34 139.079 1688.6 140.569C1695.43 142.039 1702.45 143.693 1709.65 145.533C1716.93 147.153 1724.06 149.367 1730.98 152.151C1737.63 154.623 1743.89 158.06 1749.54 162.351C1755.01 166.314 1759.47 171.509 1762.56 177.516C1765.88 183.58 1767.54 190.935 1767.54 199.573C1767.54 214.646 1763.94 226.778 1756.74 235.97C1749.72 245.158 1739.94 251.868 1727.38 256.095C1715.01 260.323 1700.97 262.438 1685.28 262.438ZM1852.65 259.131V110.24H1790.88V69.7074H1964V110.24H1902.23V259.131H1852.65Z" fill="white"></path></svg> 