<?xml version="1.0" encoding="UTF-8"?> <svg xmlns="http://www.w3.org/2000/svg" id="logotype_brandmark" data-name="logotype+brandmark" viewBox="0 0 1180 200"><defs><style>.cls-1{fill:#fff;}</style></defs><path class="cls-1" d="M207.03794,135.0002v-83.5a1.5,1.5,0,0,0-1.5-1.5h-12a1.5,1.5,0,0,0-1.5,1.5v97a1.5,1.5,0,0,0,1.5,1.5h62a1.5,1.5,0,0,0,1.5-1.5v-12a1.5,1.5,0,0,0-1.5-1.5Z"></path><rect class="cls-1" x="288.50014" y="50.0002" width="75" height="15" rx="1.5"></rect><rect class="cls-1" x="288.50014" y="135.0002" width="75" height="15" rx="1.5"></rect><rect class="cls-1" x="288.50014" y="92.44478" width="75" height="15" rx="1.5"></rect><rect class="cls-1" x="816.40966" y="50.0002" width="75" height="15" rx="1.5"></rect><rect class="cls-1" x="816.40966" y="135.0002" width="75" height="15" rx="1.5"></rect><rect class="cls-1" x="816.40966" y="92.44502" width="75" height="15" rx="1.5"></rect><rect class="cls-1" x="587.00006" y="50.0002" width="15" height="100" rx="1.5"></rect><path class="cls-1" d="M570.50006,92.51533h-38.5V51.5002a1.49991,1.49991,0,0,0-1.5-1.5h-12a1.50023,1.50023,0,0,0-1.5,1.5V92.51533h-13.5a1.50023,1.50023,0,0,0-1.5,1.5v12a1.50023,1.50023,0,0,0,1.5,1.5h13.5V148.5002a1.50023,1.50023,0,0,0,1.5,1.5h12a1.49991,1.49991,0,0,0,1.5-1.5V107.51533h38.5a1.49991,1.49991,0,0,0,1.5-1.5v-12A1.49991,1.49991,0,0,0,570.50006,92.51533Z"></path><path class="cls-1" d="M136.86139,107.445h16.63867a1.5,1.5,0,0,0,1.5-1.5v-12a1.5,1.5,0,0,0-1.5-1.5H130.18317l-18.36963-41.2583a2,2,0,0,0-1.82709-1.18652H95.01366a2,2,0,0,0-1.82707,1.18652L74.81745,92.445H51.50006a1.5,1.5,0,0,0-1.5,1.5v12a1.5,1.5,0,0,0,1.5,1.5H68.13874L50.13159,147.88993A1.50012,1.50012,0,0,0,51.502,150.0002H64.89313a2.00011,2.00011,0,0,0,1.82718-1.18658l35.77975-80.36274,35.77976,80.36274a2.00011,2.00011,0,0,0,1.82718,1.18658h13.39137a1.5,1.5,0,0,0,1.37032-2.11011Z"></path><path class="cls-1" d="M477.27643,72.13765a36.25784,36.25784,0,0,0-33.39795-22.13721l-42.25-.00024a1.50023,1.50023,0,0,0-1.5,1.5v12a1.50008,1.50008,0,0,0,1.5,1.5h42.25a21.24325,21.24325,0,0,1,21.25,21.25v.00024a21.24308,21.24308,0,0,1-21.25,21.25l-42.25-.00024a1.50023,1.50023,0,0,0-1.5,1.5v39.5a1.50008,1.50008,0,0,0,1.5,1.5h12a1.49976,1.49976,0,0,0,1.5-1.5V122.50044l28.75-.00024A36.242,36.242,0,0,0,480.128,86.25044l.00049-.00024A36.16745,36.16745,0,0,0,477.27643,72.13765Z"></path><path class="cls-1" d="M1001.8872,106.52363a36.125,36.125,0,0,0,6.19531-20.27294l.00049-.00049a36.242,36.242,0,0,0-36.25-36.24951l-42.25-.00049a1.50038,1.50038,0,0,0-1.5,1.5v12a1.50007,1.50007,0,0,0,1.5,1.5h42.25a21.24361,21.24361,0,0,1,21.25,21.25v.00049a21.24363,21.24363,0,0,1-21.25,21.25l-42.25-.00049a1.50038,1.50038,0,0,0-1.5,1.5v39.5a1.50007,1.50007,0,0,0,1.5,1.5h12a1.49977,1.49977,0,0,0,1.5-1.5V122.50069l28.75-.00049a36.30677,36.30677,0,0,0,7.46875-.77588l12.19336,27.38623a1.4997,1.4997,0,0,0,1.37011.88965h13.71631a1.49965,1.49965,0,0,0,1.37012-2.10987l-14.49854-32.56518A36.40216,36.40216,0,0,0,1001.8872,106.52363Z"></path><path class="cls-1" d="M783.44745,50.0002h-72a1.5,1.5,0,0,0-1.5,1.5v12a1.5,1.5,0,0,0,1.5,1.5H762.655L742.73659,90.41709A1.30017,1.30017,0,0,0,743.76,92.51924H758.8957a2.99981,2.99981,0,0,0,2.36117-1.14947l23.0518-29.41532a3.00043,3.00043,0,0,0,.63878-1.85074V51.5002A1.5,1.5,0,0,0,783.44745,50.0002Z"></path><path class="cls-1" d="M783.44745,135.0002H727.06562l19.88853-25.379a1.30008,1.30008,0,0,0-1.0233-2.102H730.79511a3.00022,3.00022,0,0,0-2.36151,1.14965l-22.84748,29.15546a3.00005,3.00005,0,0,0-.63867,1.85044v8.82541a1.5,1.5,0,0,0,1.5,1.5h77a1.5,1.5,0,0,0,1.5-1.5v-12A1.5,1.5,0,0,0,783.44745,135.0002Z"></path><path class="cls-1" d="M1116.32746,107.40827a1.50735,1.50735,0,0,0-1.4759,1.24823,40.28543,40.28543,0,0,1-1.87927,6.87018,32.02677,32.02677,0,0,1-11.7295,15.38379,31.56842,31.56842,0,0,1-18.105,5.46,32.56255,32.56255,0,0,1-12.66455-2.48413,30.41466,30.41466,0,0,1-14.13379-12.16016,37.502,37.502,0,0,1-4.90241-13.07087,1.50512,1.50512,0,0,0-1.4727-1.247h-12.17243a1.50007,1.50007,0,0,0-1.4911,1.7,55.992,55.992,0,0,0,2.95857,11.68871,46.02616,46.02616,0,0,0,43.87841,30.57325,47.57633,47.57633,0,0,0,18.4751-3.655,45.45876,45.45876,0,0,0,21.064-18.07276,53.128,53.128,0,0,0,7.30154-20.53263,1.501,1.501,0,0,0-1.49168-1.7015Z"></path><path class="cls-1" d="M1049.9343,92.40827a1.50721,1.50721,0,0,0,1.47618-1.25082,40.28019,40.28019,0,0,1,1.89237-6.94351,32.02559,32.02559,0,0,1,11.7295-15.38379,31.5687,31.5687,0,0,1,18.10546-5.46,32.56634,32.56634,0,0,1,12.66407,2.48388,30.41742,30.41742,0,0,1,14.13379,12.16016,37.53782,37.53782,0,0,1,4.91681,13.14464,1.505,1.505,0,0,0,1.473,1.2494h12.16808a1.50031,1.50031,0,0,0,1.49151-1.69826,56.01169,56.01169,0,0,0-2.96935-11.76658,46.02547,46.02547,0,0,0-43.87793-30.573,47.5724,47.5724,0,0,0-18.47558,3.655,45.45685,45.45685,0,0,0-21.064,18.07251,53.15252,53.15252,0,0,0-7.31232,20.61058,1.50117,1.50117,0,0,0,1.492,1.69972Z"></path></svg> 